<?xml version="1.0" encoding="UTF-8" standalone="no"?>
<svg
   aria-hidden="true"
   role="img"
   class="iconify iconify--logos"
   width="31.88"
   height="32"
   preserveAspectRatio="xMidYMid meet"
   viewBox="0 0 256 257"
   version="1.1"
   id="svg6"
   sodipodi:docname="vite.svg"
   inkscape:version="1.4 (e7c3feb1, 2024-10-09)"
   xmlns:inkscape="http://www.inkscape.org/namespaces/inkscape"
   xmlns:sodipodi="http://sodipodi.sourceforge.net/DTD/sodipodi-0.dtd"
   xmlns="http://www.w3.org/2000/svg"
   xmlns:svg="http://www.w3.org/2000/svg">
  <sodipodi:namedview
     id="namedview6"
     pagecolor="#ffffff"
     bordercolor="#000000"
     borderopacity="0.25"
     inkscape:showpageshadow="2"
     inkscape:pageopacity="0.0"
     inkscape:pagecheckerboard="0"
     inkscape:deskcolor="#d1d1d1"
     inkscape:zoom="6.050645"
     inkscape:cx="19.832596"
     inkscape:cy="19.088874"
     inkscape:window-width="1440"
     inkscape:window-height="708"
     inkscape:window-x="0"
     inkscape:window-y="38"
     inkscape:window-maximized="0"
     inkscape:current-layer="svg6" />
  <defs
     id="defs5">
    <linearGradient
       id="IconifyId1813088fe1fbc01fb466"
       x1="-.828%"
       x2="57.636%"
       y1="7.652%"
       y2="78.411%">
      <stop
         offset="0%"
         stop-color="#41D1FF"
         id="stop1" />
      <stop
         offset="100%"
         stop-color="#BD34FE"
         id="stop2" />
    </linearGradient>
    <linearGradient
       id="IconifyId1813088fe1fbc01fb467"
       x1="43.376%"
       x2="50.316%"
       y1="2.242%"
       y2="89.03%">
      <stop
         offset="0%"
         stop-color="#FFEA83"
         id="stop3" />
      <stop
         offset="8.333%"
         stop-color="#FFDD35"
         id="stop4" />
      <stop
         offset="100%"
         stop-color="#FFA800"
         id="stop5" />
    </linearGradient>
  </defs>
  <path
     d="M 18.435418,32.163093 H 236.2819"
     stroke="#1c274c"
     stroke-width="16.3384"
     stroke-linecap="round"
     id="path1" />
  <path
     d="m 78.343227,75.732398 c -10.180201,0 -15.270191,0 -19.061578,2.188919 -2.483766,1.433985 -4.546376,3.49654 -5.980306,5.980306 C 51.11237,87.693065 51.11237,92.783 51.11237,102.9632 v 98.0309 c 0,10.17998 0,15.26997 2.188973,19.06158 1.43393,2.48344 3.49654,4.54649 5.980306,5.97992 3.791387,2.18931 8.881377,2.18931 19.061578,2.18931 10.180145,0 15.270136,0 19.061523,-2.18931 2.48382,-1.43343 4.54638,-3.49648 5.98036,-5.97992 2.18892,-3.79161 2.18892,-8.8816 2.18892,-19.06158 v -98.0309 c 0,-10.1802 0,-15.270135 -2.18892,-19.061577 -1.43398,-2.483766 -3.49654,-4.546321 -5.98036,-5.980306 -3.791387,-2.188919 -8.881378,-2.188919 -19.061523,-2.188919 z"
     stroke="#1c274c"
     stroke-width="16.3384"
     id="path2" />
  <path
     d="m 176.37414,75.732398 c -10.17998,0 -15.26997,0 -19.06158,2.188919 -2.48344,1.433985 -4.54643,3.49654 -5.97987,5.980306 -2.18935,3.791442 -2.18935,8.881377 -2.18935,19.061577 v 65.35396 c 0,10.17998 0,15.26997 2.18935,19.06157 1.43344,2.48344 3.49643,4.54643 5.97987,5.97987 3.79161,2.18935 8.8816,2.18935 19.06158,2.18935 10.17998,0 15.26991,0 19.06158,-2.18935 2.48343,-1.43344 4.54643,-3.49643 5.97986,-5.97987 2.18936,-3.7916 2.18936,-8.88159 2.18936,-19.06157 V 102.9632 c 0,-10.1802 0,-15.270135 -2.18936,-19.061577 -1.43343,-2.483766 -3.49643,-4.546321 -5.97986,-5.980306 -3.79167,-2.188919 -8.8816,-2.188919 -19.06158,-2.188919 z"
     stroke="#1c274c"
     stroke-width="16.3384"
     id="path3" />
</svg>
